<svg xmlns="http://www.w3.org/2000/svg" width="20" height="20" viewBox="0 0 20 20" fill="none">
  <path d="M13.9582 2.96669V1.66669C13.9582 1.32502 13.6749 1.04169 13.3332 1.04169C12.9915 1.04169 12.7082 1.32502 12.7082 1.66669V2.91669H7.29153V1.66669C7.29153 1.32502 7.0082 1.04169 6.66653 1.04169C6.32487 1.04169 6.04153 1.32502 6.04153 1.66669V2.96669C3.79153 3.17502 2.69987 4.51669 2.5332 6.50835C2.51653 6.75002 2.71653 6.95002 2.94987 6.95002H17.0499C17.2915 6.95002 17.4915 6.74169 17.4665 6.50835C17.2999 4.51669 16.2082 3.17502 13.9582 2.96669Z" fill="white"/>
  <path d="M16.6667 8.20001H3.33333C2.875 8.20001 2.5 8.57501 2.5 9.03335V14.1667C2.5 16.6667 3.75 18.3333 6.66667 18.3333H13.3333C16.25 18.3333 17.5 16.6667 17.5 14.1667V9.03335C17.5 8.57501 17.125 8.20001 16.6667 8.20001ZM12.3667 12.4917L11.95 12.9167H11.9417L9.41667 15.4417C9.30833 15.55 9.08333 15.6667 8.925 15.6833L7.8 15.85C7.39167 15.9083 7.10833 15.6167 7.16667 15.2167L7.325 14.0833C7.35 13.925 7.45833 13.7083 7.56667 13.5917L10.1 11.0667L10.5167 10.6417C10.7917 10.3667 11.1 10.1667 11.4333 10.1667C11.7167 10.1667 12.025 10.3 12.3667 10.6417C13.1167 11.3917 12.875 11.9833 12.3667 12.4917Z" fill="white"/>
</svg>