<svg xmlns="http://www.w3.org/2000/svg" width="20" height="20" viewBox="0 0 20 20" fill="none">
  <path d="M13.9582 2.96675V1.66675C13.9582 1.32508 13.6749 1.04175 13.3332 1.04175C12.9915 1.04175 12.7082 1.32508 12.7082 1.66675V2.91675H7.29153V1.66675C7.29153 1.32508 7.0082 1.04175 6.66653 1.04175C6.32487 1.04175 6.04153 1.32508 6.04153 1.66675V2.96675C3.79153 3.17508 2.69987 4.51675 2.5332 6.50841C2.51653 6.75008 2.71653 6.95008 2.94987 6.95008H17.0499C17.2915 6.95008 17.4915 6.74175 17.4665 6.50841C17.2999 4.51675 16.2082 3.17508 13.9582 2.96675Z" fill="#4F4F4F"/>
  <path d="M16.6667 8.19995H3.33333C2.875 8.19995 2.5 8.57495 2.5 9.03328V14.1666C2.5 16.6666 3.75 18.3333 6.66667 18.3333H13.3333C16.25 18.3333 17.5 16.6666 17.5 14.1666V9.03328C17.5 8.57495 17.125 8.19995 16.6667 8.19995ZM12.3667 12.4916L11.95 12.9166H11.9417L9.41667 15.4416C9.30833 15.55 9.08333 15.6666 8.925 15.6833L7.8 15.85C7.39167 15.9083 7.10833 15.6166 7.16667 15.2166L7.325 14.0833C7.35 13.925 7.45833 13.7083 7.56667 13.5916L10.1 11.0666L10.5167 10.6416C10.7917 10.3666 11.1 10.1666 11.4333 10.1666C11.7167 10.1666 12.025 10.3 12.3667 10.6416C13.1167 11.3916 12.875 11.9833 12.3667 12.4916Z" fill="#4F4F4F"/>
</svg>