<svg width="21" height="20" viewBox="0 0 21 20" fill="none" xmlns="http://www.w3.org/2000/svg">
<g id="Facebook - Negative" clip-path="url(#clip0_2106_4211)">
<path id="Vector" d="M20.5889 10C20.5889 4.47715 16.1117 0 10.5889 0C5.06602 0 0.588867 4.47715 0.588867 10C0.588867 14.9912 4.2457 19.1283 9.02637 19.8785V12.8906H6.4873V10H9.02637V7.79688C9.02637 5.29063 10.5193 3.90625 12.8035 3.90625C13.8973 3.90625 15.042 4.10156 15.042 4.10156V6.5625H13.7811C12.5389 6.5625 12.1514 7.3334 12.1514 8.125V10H14.9248L14.4814 12.8906H12.1514V19.8785C16.932 19.1283 20.5889 14.9912 20.5889 10Z" fill="#1B1717" fill-opacity="0.7"/>
</g>
<defs>
<clipPath id="clip0_2106_4211">
<rect width="20" height="20" fill="white" transform="translate(0.588867)"/>
</clipPath>
</defs>
</svg>
