<svg width="100" height="101" viewBox="0 0 100 101" fill="none" xmlns="http://www.w3.org/2000/svg">
<g id="mage:light-bulb">
<g id="Group">
<path id="Vector" d="M68.3558 51.3261C67.242 60.6016 61.1668 64.3079 58.543 66.9984C55.9153 69.6967 56.3859 70.234 56.5624 74.1913C56.5919 74.6809 56.5207 75.1713 56.3534 75.6324C56.1861 76.0935 55.9262 76.5154 55.5896 76.8722C55.253 77.229 54.8469 77.5131 54.3964 77.707C53.9458 77.9008 53.4604 78.0004 52.9699 77.9995H42.5452C42.0548 77.9998 41.5694 77.8999 41.1189 77.7058C40.6684 77.5118 40.2623 77.2278 39.9256 76.8712C39.5888 76.5146 39.3284 76.0929 39.1605 75.6321C38.9925 75.1712 38.9205 74.6809 38.9488 74.1913C38.9488 70.3085 39.3096 69.4065 36.9721 66.9984C33.9914 64.0177 26.9789 59.8094 26.9789 48.2356C26.961 45.3608 27.5389 42.5134 28.676 39.873C29.8132 37.2326 31.485 34.8564 33.5861 32.8942C35.6872 30.932 38.172 29.4263 40.8838 28.4721C43.5957 27.5178 46.4759 27.1357 49.3428 27.3499C52.2097 27.564 55.0011 28.3697 57.5411 29.7162C60.0812 31.0627 62.3147 32.9208 64.101 35.1734C65.8873 37.426 67.1875 40.0242 67.9198 42.8042C68.6521 45.5843 68.8006 48.4859 68.3558 51.3261Z" stroke="white" stroke-width="4" stroke-linecap="round" stroke-linejoin="round"/>
<path id="Vector_2" d="M41.7176 77.7842V83.7142C41.7176 85.334 42.6196 86.6636 43.7296 86.6636H51.7814C52.8991 86.6636 53.7973 85.3301 53.7973 83.7142V77.7842M44.6983 36.4466C42.3825 36.4476 40.1619 37.3683 38.5248 39.0061C36.8876 40.644 35.968 42.865 35.968 45.1808M76.5134 49.0283H83.7063M69.2734 25.4493L74.3759 20.3468M73.1954 69.0147L78.2979 74.1132M47.7574 11.6636V17.4799M21.2449 20.3429L26.3121 25.4493M17.3229 74.1132L22.3901 69.0147M19.0015 49.0283H11.8125" stroke="white" stroke-width="4" stroke-linecap="round" stroke-linejoin="round"/>
</g>
</g>
</svg>
