<svg xmlns="http://www.w3.org/2000/svg" width="56" height="56" viewBox="0 0 56 56" fill="none">
  <g clip-path="url(#clip0_2146_3271)">
    <path d="M28.1555 17.1113C22.0888 17.1113 17.2666 21.9336 17.2666 28.0002C17.2666 34.0669 22.0888 38.8891 28.1555 38.8891C34.2222 38.8891 39.0444 34.0669 39.0444 28.0002C39.0444 21.9336 34.2222 17.1113 28.1555 17.1113ZM28.1555 35.778C23.7999 35.778 20.3777 32.3558 20.3777 28.0002C20.3777 23.6447 23.7999 20.2224 28.1555 20.2224C32.511 20.2224 35.9333 23.6447 35.9333 28.0002C35.9333 32.3558 32.511 35.778 28.1555 35.778Z" fill="white"/>
    <path d="M51.0224 22.8669L46.6669 21.4669L45.7336 19.1336L47.9113 15.0891C48.378 14.1558 48.2224 12.9113 47.4447 12.1336L43.7113 8.40022C42.9336 7.62244 41.6891 7.46688 40.7558 7.93355L36.7113 10.1113L34.378 9.178L32.978 4.82244C32.6669 3.88911 31.7336 3.11133 30.6447 3.11133H25.3558C24.2669 3.11133 23.3335 3.88911 23.178 4.97799L21.778 9.33355C20.8447 9.48911 20.0669 9.80022 19.2891 10.2669L15.2447 8.08911C14.3113 7.62244 13.0669 7.778 12.2891 8.55577L8.55577 12.2891C7.778 13.0669 7.62244 14.3113 8.08911 15.2447L10.1113 19.1336C9.80022 19.9113 9.48911 20.8447 9.178 21.6224L4.82244 23.0224C3.88911 23.3336 3.11133 24.2669 3.11133 25.3558V30.6447C3.11133 31.7336 3.88911 32.6669 4.97799 32.978L9.33355 34.378L10.2669 36.7113L8.08911 40.7558C7.62244 41.6891 7.778 42.9336 8.55577 43.7113L12.2891 47.4447C13.0669 48.2224 14.3113 48.378 15.2447 47.9113L19.2891 45.7336L21.6224 46.6669L23.0224 51.178C23.3336 52.1113 24.2669 52.8891 25.3558 52.8891H30.6447C31.7336 52.8891 32.6669 52.1113 32.978 51.178L34.378 46.6669L36.7113 45.7336L40.7558 47.9113C41.6891 48.378 42.9336 48.2224 43.7113 47.4447L47.4447 43.7113C48.2224 42.9336 48.378 41.6891 47.9113 40.7558L45.7336 36.7113L46.6669 34.378L51.178 32.978C52.1113 32.6669 52.8891 31.7336 52.8891 30.6447V25.3558C52.8891 24.2669 52.1113 23.178 51.0224 22.8669ZM49.778 30.178L44.178 31.8891L44.0224 32.6669L42.6224 35.9336L42.1558 36.7113L44.9558 41.8447L41.8447 44.9558L36.7113 42.1558L35.9336 42.6224C34.8447 43.2447 33.7558 43.7113 32.6669 44.0224L31.8891 44.178L30.178 49.778H25.8224L24.1113 44.178L23.3336 44.0224L20.0669 42.6224L19.2891 42.1558L14.1558 44.9558L11.0447 41.8447L13.8447 36.7113L13.378 35.9336C12.7558 34.8447 12.2891 33.7558 11.978 32.6669L11.8224 31.8891L6.22244 30.178V25.8224L11.5113 24.2669L11.8224 23.4891C12.1336 22.2447 12.6002 21.1558 13.2224 20.0669L13.6891 19.2891L11.0447 14.1558L14.1558 11.0447L19.1336 13.8447L19.9113 13.378C21.0002 12.7558 22.0891 12.2891 23.3336 11.978L24.1113 11.6669L25.8224 6.22244H30.178L31.8891 11.6669L32.6669 11.978C33.7558 12.2891 34.8447 12.7558 35.9336 13.378L36.7113 13.8447L41.8447 11.0447L44.9558 14.1558L42.1558 19.2891L42.6224 20.0669C43.2447 21.1558 43.7113 22.2447 44.0224 23.3336L44.178 24.1113L49.778 25.8224V30.178Z" fill="white"/>
  </g>
  <defs>
    <clipPath id="clip0_2146_3271">
      <rect width="56" height="56" fill="white"/>
    </clipPath>
  </defs>
</svg>