<svg xmlns="http://www.w3.org/2000/svg" width="20" height="21" viewBox="0 0 20 21" fill="none">
  <path d="M17.3087 16.775C17.3087 17.075 17.242 17.3833 17.1003 17.6833C16.9587 17.9833 16.7753 18.2666 16.5337 18.5333C16.1253 18.9833 15.6753 19.3083 15.167 19.5166C14.667 19.725 14.1253 19.8333 13.542 19.8333C12.692 19.8333 11.7837 19.6333 10.8253 19.225C9.86699 18.8166 8.90866 18.2666 7.95866 17.575C7.00033 16.875 6.09199 16.1 5.22533 15.2416C4.36699 14.375 3.59199 13.4666 2.90033 12.5166C2.21699 11.5666 1.66699 10.6166 1.26699 9.67496C0.866992 8.72496 0.666992 7.81663 0.666992 6.94996C0.666992 6.38329 0.766992 5.84163 0.966992 5.34163C1.16699 4.83329 1.48366 4.36663 1.92533 3.94996C2.45866 3.42496 3.04199 3.16663 3.65866 3.16663C3.89199 3.16663 4.12533 3.21663 4.33366 3.31663C4.55033 3.41663 4.74199 3.56663 4.89199 3.78329L6.82533 6.50829C6.97533 6.71663 7.08366 6.90829 7.15866 7.09163C7.23366 7.26663 7.27533 7.44163 7.27533 7.59996C7.27533 7.79996 7.21699 7.99996 7.10033 8.19163C6.99199 8.38329 6.83366 8.58329 6.63366 8.78329L6.00033 9.44163C5.90866 9.53329 5.86699 9.64163 5.86699 9.77496C5.86699 9.84163 5.87533 9.89996 5.89199 9.96663C5.91699 10.0333 5.94199 10.0833 5.95866 10.1333C6.10866 10.4083 6.36699 10.7666 6.73366 11.2C7.10866 11.6333 7.50866 12.075 7.94199 12.5166C8.39199 12.9583 8.82533 13.3666 9.26699 13.7416C9.70033 14.1083 10.0587 14.3583 10.342 14.5083C10.3837 14.525 10.4337 14.55 10.492 14.575C10.5587 14.6 10.6253 14.6083 10.7003 14.6083C10.842 14.6083 10.9503 14.5583 11.042 14.4666L11.6753 13.8416C11.8837 13.6333 12.0837 13.475 12.2753 13.375C12.467 13.2583 12.6587 13.2 12.867 13.2C13.0253 13.2 13.192 13.2333 13.3753 13.3083C13.5587 13.3833 13.7503 13.4916 13.9587 13.6333L16.717 15.5916C16.9337 15.7416 17.0837 15.9166 17.1753 16.125C17.2587 16.3333 17.3087 16.5416 17.3087 16.775Z" stroke="white" stroke-width="1.2" stroke-miterlimit="10"/>
  <path d="M14.4167 9.00004C14.4167 8.50004 14.025 7.73337 13.4417 7.10837C12.9083 6.53337 12.2 6.08337 11.5 6.08337" stroke="white" stroke-width="1.2" stroke-linecap="round" stroke-linejoin="round"/>
  <path d="M17.3333 8.99996C17.3333 5.77496 14.725 3.16663 11.5 3.16663" stroke="white" stroke-width="1.2" stroke-linecap="round" stroke-linejoin="round"/>
</svg>