<svg xmlns="http://www.w3.org/2000/svg" width="36" height="36" viewBox="0 0 36 36" fill="none">
  <path d="M1.875 18C1.875 26.895 9.105 34.125 18 34.125C26.895 34.125 34.125 26.895 34.125 18C34.125 9.105 26.895 1.875 18 1.875C9.105 1.875 1.875 9.105 1.875 18ZM31.875 18C31.875 25.65 25.65 31.875 18 31.875C10.35 31.875 4.125 25.65 4.125 18C4.125 10.35 10.35 4.125 18 4.125C25.65 4.125 31.875 10.35 31.875 18Z" fill="#F3F9FF"/>
  <path d="M13.485 18C13.485 18.285 13.59 18.57 13.815 18.795L19.11 24.09C19.545 24.525 20.265 24.525 20.7 24.09C21.135 23.655 21.135 22.935 20.7 22.5L16.2 18L20.7 13.5C21.135 13.065 21.135 12.345 20.7 11.91C20.265 11.475 19.545 11.475 19.11 11.91L13.815 17.205C13.59 17.43 13.485 17.715 13.485 18Z" fill="#F3F9FF"/>
</svg>