<svg xmlns="http://www.w3.org/2000/svg" width="36" height="37" viewBox="0 0 36 37" fill="none">
  <path d="M34.125 18.7578C34.125 27.6528 26.895 34.8828 18 34.8828C9.105 34.8828 1.875 27.6528 1.875 18.7578C1.875 9.86281 9.105 2.63281 18 2.63281C26.895 2.63281 34.125 9.86281 34.125 18.7578ZM4.125 18.7578C4.125 26.4078 10.35 32.6328 18 32.6328C25.65 32.6328 31.875 26.4078 31.875 18.7578C31.875 11.1078 25.65 4.88281 18 4.88281C10.35 4.88281 4.125 11.1078 4.125 18.7578Z" fill="#252222"/>
  <path d="M22.5149 18.7578C22.5149 19.0428 22.4099 19.3278 22.1849 19.5528L16.8899 24.8478C16.4549 25.2828 15.7349 25.2828 15.2999 24.8478C14.8649 24.4128 14.8649 23.6928 15.2999 23.2578L19.7999 18.7578L15.2999 14.2578C14.8649 13.8228 14.8649 13.1028 15.2999 12.6678C15.7349 12.2328 16.4549 12.2328 16.8899 12.6678L22.1849 17.9628C22.4099 18.1878 22.5149 18.4728 22.5149 18.7578Z" fill="#252222"/>
</svg>