<svg width="61" height="62" viewBox="0 0 61 62" fill="none" xmlns="http://www.w3.org/2000/svg">
<g id="simple-line-icons:check">
<path id="Vector" d="M39.8433 19.2286L39.8426 19.2292L23.8546 35.0304L16.7515 28.0542C15.9819 27.2982 14.7362 27.2984 13.9658 28.0541L13.9657 28.0542C13.1936 28.8125 13.1936 30.0437 13.9657 30.802L22.4876 39.1726L22.4878 39.1727C23.2574 39.9276 24.5029 39.9275 25.2732 39.1728L25.2734 39.1726C25.3587 39.0889 25.4306 39 25.4938 38.9113L42.63 21.9772C43.4011 21.2189 43.401 19.9879 42.6301 19.2289L42.6297 19.2286C41.8593 18.4729 40.6137 18.4729 39.8433 19.2286ZM29.024 2.00073C13.6757 2.00073 1.22559 14.2221 1.22559 29.3072C1.22559 44.3931 13.6757 56.6136 29.024 56.6136C44.3731 56.6136 56.8224 44.3931 56.8224 29.3072C56.8224 14.2221 44.3731 2.00073 29.024 2.00073ZM29.024 52.7848C15.8673 52.7848 5.16913 42.2195 5.16913 29.3071C5.16913 16.3955 15.8665 5.88268 29.024 5.88268C42.1814 5.88268 52.8788 16.3955 52.8788 29.3071C52.8788 42.2193 42.1807 52.7848 29.024 52.7848Z" fill="#0078FF" stroke="#0078FF" stroke-width="0.5"/>
</g>
</svg>
