<svg width="61" height="62" viewBox="0 0 61 62" fill="none" xmlns="http://www.w3.org/2000/svg">
<g id="Group 1000006811">
<g id="Group 1000006812">
<path id="Vector" d="M38.0715 33.6766L38.0714 33.6767L45.8964 37.1834C45.8968 37.1835 45.8972 37.1837 45.8976 37.1839C46.4044 37.4052 46.8262 37.784 47.1004 38.2642C47.3749 38.7447 47.487 39.301 47.4199 39.8503L47.4196 39.8526C47.1267 42.0779 46.0337 44.1205 44.3448 45.5988C42.6559 47.0771 40.4866 47.89 38.2421 47.8857M38.0715 33.6766L38.2426 47.6357M38.0715 33.6766L38.0677 33.675C37.6748 33.5067 37.2461 33.439 36.8205 33.4781C36.3956 33.5171 35.9871 33.6614 35.6319 33.8978C35.5902 33.9246 35.5505 33.9545 35.513 33.987C35.5126 33.9873 35.5123 33.9877 35.5119 33.988L31.4505 37.4423C31.4465 37.4433 31.4423 37.4439 31.4382 37.4441C31.4291 37.4444 31.4202 37.4427 31.4119 37.4392C28.8336 36.1934 26.1523 33.5277 24.9034 30.9861L24.6791 31.0963M38.0715 33.6766L14.7144 24.1074M38.2421 47.8857L38.2426 47.6357M38.2421 47.8857C38.2423 47.8857 38.2424 47.8857 38.2426 47.8857V47.6357M38.2421 47.8857C25.1307 47.8854 14.4645 37.2192 14.4644 24.1077M38.2426 47.6357C25.2689 47.6357 14.7144 37.0811 14.7144 24.1074M14.4644 24.1077C14.4644 24.1078 14.4644 24.1079 14.4644 24.1079L14.7144 24.1074M14.4644 24.1077C14.4644 24.1076 14.4644 24.1075 14.4644 24.1074H14.7144M14.4644 24.1077C14.4598 21.8632 15.2726 19.6938 16.7509 18.0049C18.2292 16.3159 20.272 15.223 22.4975 14.9304L22.4998 14.9301L22.4998 14.9301C23.0517 14.8629 23.6105 14.9765 24.0924 15.2538C24.5737 15.5308 24.9524 15.9563 25.1716 16.4666L28.6537 24.279L28.6545 24.2808L28.6545 24.2808C28.8252 24.672 28.8958 25.0995 28.8599 25.5247C28.824 25.9495 28.683 26.3587 28.4497 26.7154C28.4233 26.7565 28.3947 26.7961 28.3638 26.8339L28.3614 26.8368L28.3614 26.8368L24.8977 30.9465C24.8971 30.95 24.8968 30.9536 24.8968 30.9571C24.8968 30.9673 24.8991 30.9773 24.9036 30.9864L24.6791 31.0963M24.6791 31.0963C25.9532 33.6894 28.6772 36.3968 31.3067 37.666L24.6791 30.818C24.6579 30.8613 24.6468 30.9089 24.6468 30.9571C24.6468 31.0054 24.6579 31.053 24.6791 31.0963ZM38.2433 45.3974H38.2426C26.5039 45.3974 16.9527 35.8462 16.9527 24.1074L16.9527 24.1066C16.9473 22.4672 17.539 20.882 18.6172 19.6471C19.6919 18.4163 21.1765 17.6174 22.7953 17.3984H22.8136C22.8294 17.399 22.8448 17.4042 22.8577 17.4134C22.8711 17.4229 22.8812 17.4362 22.8869 17.4516L22.8899 17.4597L22.8934 17.4676L26.3895 25.2734L26.3895 25.2734L26.3905 25.2756C26.3954 25.2862 26.3979 25.2978 26.3979 25.3095C26.3979 25.3136 26.3976 25.3177 26.397 25.3218L22.9303 29.4371C22.8969 29.4753 22.8664 29.5158 22.839 29.5585C22.5969 29.9284 22.4543 30.3545 22.425 30.7957C22.3958 31.2372 22.481 31.6788 22.6725 32.0777L22.6732 32.0792C24.1678 35.1391 27.241 38.1884 30.3331 39.6823L30.3346 39.683C30.7359 39.8734 31.1796 39.9566 31.6226 39.9244C32.0655 39.8923 32.4926 39.7459 32.8621 39.4995L32.8621 39.4995L32.8646 39.4978C32.9008 39.473 32.9389 39.445 32.9762 39.4139L32.9782 39.4123L37.0396 35.9564C37.0436 35.9555 37.0477 35.9548 37.0518 35.9546C37.0602 35.954 37.0686 35.9551 37.0766 35.9576L44.8973 39.4616L44.8973 39.4616L44.9015 39.4635C44.9172 39.4702 44.9305 39.4816 44.9393 39.4962C44.9474 39.5096 44.9514 39.525 44.951 39.5406C44.7347 41.1632 43.9359 42.6519 42.7034 43.7295C41.4687 44.8089 39.8832 45.4018 38.2433 45.3974Z" fill="#0078FF" stroke="#0078FF" stroke-width="0.5"/>
<path id="Ellipse 1" d="M30.5 59.8293C45.8599 59.8293 58.2089 47.0119 58.2089 31.3293C58.2089 15.6468 45.8599 2.82935 30.5 2.82935C15.14 2.82935 2.79102 15.6468 2.79102 31.3293C2.79102 47.0119 15.14 59.8293 30.5 59.8293Z" stroke="#0078FF" stroke-width="4"/>
</g>
</g>
</svg>
