<svg width="26" height="26" viewBox="0 0 26 26" fill="none" xmlns="http://www.w3.org/2000/svg">
<g id="u:cloud-download">
<path id="Vector" d="M15.4815 18.7307L14.084 20.139V14.0832C14.084 13.7959 13.9699 13.5203 13.7667 13.3171C13.5635 13.114 13.288 12.9998 13.0007 12.9998C12.7134 12.9998 12.4378 13.114 12.2346 13.3171C12.0315 13.5203 11.9173 13.7959 11.9173 14.0832V20.139L10.5198 18.7307C10.4188 18.6297 10.2989 18.5495 10.1669 18.4949C10.035 18.4402 9.89352 18.4121 9.75067 18.4121C9.60783 18.4121 9.46638 18.4402 9.3344 18.4949C9.20243 18.5495 9.08252 18.6297 8.98151 18.7307C8.8805 18.8317 8.80037 18.9516 8.74571 19.0836C8.69104 19.2156 8.66291 19.357 8.66291 19.4998C8.66291 19.6427 8.69104 19.7841 8.74571 19.9161C8.80037 20.0481 8.8805 20.168 8.98151 20.269L12.2315 23.519C12.3345 23.6176 12.456 23.695 12.589 23.7465C12.7187 23.8038 12.8589 23.8334 13.0007 23.8334C13.1425 23.8334 13.2827 23.8038 13.4123 23.7465C13.5453 23.695 13.6668 23.6176 13.7698 23.519L17.0198 20.269C17.2238 20.065 17.3384 19.7883 17.3384 19.4998C17.3384 19.2114 17.2238 18.9347 17.0198 18.7307C16.8158 18.5267 16.5392 18.4121 16.2507 18.4121C15.9622 18.4121 15.6855 18.5267 15.4815 18.7307ZM19.9557 6.73818C19.2937 5.21718 18.1514 3.95518 16.7036 3.14555C15.2558 2.33592 13.5825 2.02333 11.9401 2.25568C10.2976 2.48803 8.77668 3.2525 7.61028 4.43195C6.44389 5.6114 5.6964 7.14076 5.48234 8.78568C4.44948 9.03303 3.54341 9.65108 2.93622 10.5225C2.32903 11.3939 2.063 12.4579 2.18864 13.5125C2.31429 14.5671 2.82286 15.5389 3.61778 16.2432C4.4127 16.9475 5.43861 17.3354 6.50067 17.3332C6.78799 17.3332 7.06354 17.219 7.26671 17.0159C7.46987 16.8127 7.58401 16.5372 7.58401 16.2498C7.58401 15.9625 7.46987 15.687 7.26671 15.4838C7.06354 15.2806 6.78799 15.1665 6.50067 15.1665C5.92604 15.1665 5.37494 14.9382 4.96861 14.5319C4.56228 14.1256 4.33401 13.5745 4.33401 12.9998C4.33401 12.4252 4.56228 11.8741 4.96861 11.4678C5.37494 11.0615 5.92604 10.8332 6.50067 10.8332C6.78799 10.8332 7.06354 10.719 7.26671 10.5159C7.46987 10.3127 7.58401 10.0372 7.58401 9.74985C7.58677 8.46856 8.04365 7.22974 8.87347 6.25348C9.70328 5.27721 10.8523 4.62671 12.1164 4.41754C13.3805 4.20837 14.6778 4.45409 15.7779 5.11102C16.8779 5.76796 17.7095 6.79358 18.1248 8.00568C18.1868 8.19184 18.2981 8.35769 18.4469 8.48552C18.5957 8.61336 18.7765 8.69838 18.9698 8.73151C19.6914 8.86787 20.3455 9.24458 20.8256 9.80026C21.3057 10.3559 21.5835 11.0578 21.6136 11.7915C21.6438 12.5253 21.4245 13.2476 20.9917 13.8408C20.5588 14.434 19.9378 14.8631 19.2298 15.0582C19.0918 15.0937 18.9622 15.1561 18.8483 15.2418C18.7344 15.3275 18.6385 15.4347 18.5661 15.5575C18.4937 15.6802 18.4461 15.816 18.4262 15.9571C18.4062 16.0982 18.4143 16.2418 18.4498 16.3798C18.4854 16.5178 18.5478 16.6475 18.6335 16.7614C18.7191 16.8752 18.8264 16.9711 18.9491 17.0436C19.0719 17.116 19.2076 17.1635 19.3488 17.1835C19.4899 17.2034 19.6335 17.1954 19.7715 17.1598C20.9116 16.8586 21.9222 16.1935 22.6499 15.2656C23.3776 14.3377 23.7827 13.1977 23.8035 12.0186C23.8243 10.8396 23.4598 9.68598 22.7654 8.73294C22.0709 7.77991 21.0844 7.07954 19.9557 6.73818Z" fill="#01438D"/>
</g>
</svg>
