<svg xmlns="http://www.w3.org/2000/svg" width="30" height="31" viewBox="0 0 30 31" fill="none">
  <path d="M21.6357 19.3337L23.3521 14.1844C24.8516 9.68599 25.6013 7.4368 24.414 6.24953C23.2268 5.06226 20.9776 5.81199 16.4792 7.31145L11.3299 9.0279C7.69923 10.2381 5.88392 10.8432 5.36806 11.7306C4.87731 12.5747 4.87731 13.6173 5.36806 14.4614C5.88392 15.3488 7.69923 15.9539 11.3299 17.1641C11.7798 17.3141 12.286 17.207 12.6229 16.8732L18.1286 11.4185C18.4383 11.1117 18.9382 11.114 19.245 11.4237C19.5519 11.7335 19.5496 12.2333 19.2398 12.5402L13.8231 17.9067C13.4518 18.2747 13.3342 18.8378 13.4995 19.3337C14.7097 22.9643 15.3148 24.7797 16.2022 25.2955C17.0463 25.7863 18.0889 25.7863 18.933 25.2955C19.8204 24.7797 20.4255 22.9643 21.6357 19.3337Z" fill="#0078FF"/>
</svg>