<svg xmlns="http://www.w3.org/2000/svg" width="30" height="31" viewBox="0 0 30 31" fill="none">
  <path fill-rule="evenodd" clip-rule="evenodd" d="M21.9771 18.454C24.6743 15.7568 24.6743 11.3837 21.9771 8.68649C19.2799 5.98927 14.9068 5.98927 12.2096 8.68649C10.4187 10.4774 9.8169 13.0072 10.4043 15.2947C10.4991 15.6636 10.4149 16.0626 10.1456 16.3319L6.43349 20.044C6.11558 20.3619 5.95941 20.8071 6.00906 21.254L6.24113 23.3426C6.26587 23.5652 6.36566 23.7729 6.52408 23.9313L6.73229 24.1395C6.89072 24.2979 7.09834 24.3977 7.32101 24.4224L9.4096 24.6545C9.85645 24.7042 10.3016 24.548 10.6196 24.2301L11.3296 23.5201L9.58343 21.793C9.28893 21.5017 9.28632 21.0269 9.5776 20.7324C9.86888 20.4379 10.3437 20.4352 10.6382 20.7265L12.3903 22.4594L14.3319 20.5177C14.6013 20.2484 15 20.1645 15.3689 20.2593C17.6563 20.8467 20.1861 20.2449 21.9771 18.454ZM15.5858 12.2494C16.3668 11.4683 17.6332 11.4683 18.4142 12.2494C19.1953 13.0304 19.1953 14.2967 18.4142 15.0778C17.6332 15.8588 16.3668 15.8588 15.5858 15.0778C14.8047 14.2967 14.8047 13.0304 15.5858 12.2494Z" fill="#0078FF"/>
  <path fill-rule="evenodd" clip-rule="evenodd" d="M21.9771 18.454C24.6743 15.7568 24.6743 11.3837 21.9771 8.68649C19.2799 5.98927 14.9068 5.98927 12.2096 8.68649C10.4187 10.4774 9.8169 13.0072 10.4043 15.2947C10.4991 15.6636 10.4149 16.0626 10.1456 16.3319L6.43349 20.044C6.11558 20.3619 5.95941 20.8071 6.00906 21.254L6.24113 23.3426C6.26587 23.5652 6.36566 23.7729 6.52408 23.9313L6.73229 24.1395C6.89072 24.2979 7.09834 24.3977 7.32101 24.4224L9.4096 24.6545C9.85645 24.7042 10.3016 24.548 10.6196 24.2301L11.3296 23.5201L9.58343 21.793C9.28893 21.5017 9.28632 21.0269 9.5776 20.7324C9.86888 20.4379 10.3437 20.4352 10.6382 20.7265L12.3903 22.4594L14.3319 20.5177C14.6013 20.2484 15 20.1645 15.3689 20.2593C17.6563 20.8467 20.1861 20.2449 21.9771 18.454ZM15.5858 12.2494C16.3668 11.4683 17.6332 11.4683 18.4142 12.2494C19.1953 13.0304 19.1953 14.2967 18.4142 15.0778C17.6332 15.8588 16.3668 15.8588 15.5858 15.0778C14.8047 14.2967 14.8047 13.0304 15.5858 12.2494Z" fill="black" fill-opacity="0.2"/>
</svg>