<svg width="72" height="73" viewBox="0 0 72 73" fill="none" xmlns="http://www.w3.org/2000/svg">
<g id="simple-line-icons:check" clip-path="url(#clip0_2146_3388)">
<path id="Vector" d="M36 0.663574C16.1179 0.663574 0 16.7814 0 36.6636C0 56.5468 16.1179 72.6636 36 72.6636C55.8833 72.6636 72 56.5468 72 36.6636C72 16.7814 55.8833 0.663574 36 0.663574ZM36 68.2345C18.6311 68.2345 4.5 54.0324 4.5 36.6634C4.5 19.2946 18.6311 5.16343 36 5.16343C53.3689 5.16343 67.5 19.2946 67.5 36.6634C67.5 54.0322 53.3689 68.2345 36 68.2345ZM50.3674 23.4909L29.2454 44.7456L19.7336 35.2337C18.8549 34.3551 17.4307 34.3551 16.5509 35.2337C15.6723 36.1123 15.6723 37.5366 16.5509 38.4152L27.6873 49.5527C28.5659 50.4302 29.9902 50.4302 30.8699 49.5527C30.9712 49.4515 31.0579 49.3411 31.1366 49.2264L53.5511 26.6735C54.4286 25.7949 54.4286 24.3706 53.5511 23.4909C52.6714 22.6123 51.2471 22.6123 50.3674 23.4909Z" fill="white"/>
</g>
<defs>
<clipPath id="clip0_2146_3388">
<rect width="72" height="72" fill="white" transform="translate(0 0.663574)"/>
</clipPath>
</defs>
</svg>
