<svg width="100" height="101" viewBox="0 0 100 101" fill="none" xmlns="http://www.w3.org/2000/svg">
<g id="ri:shake-hands-fill">
<path id="Vector" d="M52.4634 82.6363L53.444 80.9366L53.4444 80.9358C55.0268 78.1899 55.692 75.0163 55.3426 71.8704C54.9933 68.7247 53.6479 65.7719 51.5026 63.4345C51.5025 63.4345 51.5025 63.4344 51.5025 63.4344L41.4001 52.4257L52.4634 82.6363ZM52.4634 82.6363C53.269 82.5561 54.0461 82.3007 54.7391 81.8888L71.2269 72.0881C71.433 71.9654 71.6099 71.8026 71.7473 71.6108C71.8847 71.4192 71.9798 71.2025 72.0276 70.9747C72.0754 70.7469 72.0751 70.5119 72.0268 70.2843C71.9784 70.0566 71.8829 69.8403 71.7452 69.649C71.7451 69.6489 71.745 69.6489 71.745 69.6488L52.1064 42.3911L42.8927 45.1266C40.2868 45.9011 37.5183 45.9622 34.8803 45.3036C32.2423 44.6449 29.8313 43.2906 27.9039 41.382L27.9036 41.3817L26.8085 40.2967C25.62 39.1199 24.7087 37.6952 24.1415 36.1247C23.5742 34.5542 23.3657 32.8779 23.5312 31.217C23.6968 29.5562 24.2322 27.9534 25.0978 26.5243C25.5445 25.7869 26.0732 25.1054 26.6722 24.4916H17.739C17.2718 24.4916 16.8274 24.6756 16.5027 24.9973M52.4634 82.6363L16.5027 24.9973M16.5027 24.9973L15.0951 23.5765L41.3998 52.4255C38.74 49.5261 35.0418 47.7801 31.1021 47.5568C27.1624 47.3336 23.2886 48.6504 20.3137 51.2293L20.3133 51.2297L16.0718 54.9088C16.0243 54.6218 16.0001 54.3303 16 54.037C16 54.0369 16 54.0368 16 54.0368V26.1958C16 25.7499 16.1786 25.3184 16.5027 24.9973ZM78.6484 28.1958H78.6511H81.3058C81.773 28.1958 82.2173 28.3799 82.542 28.7016L83.9496 27.2808L82.5421 28.7016C82.8661 29.0227 83.0448 29.4542 83.0448 29.9001V55.8299C83.0448 56.2758 82.8661 56.7073 82.5421 57.0284C82.2173 57.3501 81.773 57.5341 81.3058 57.5341H74.8512L59.8583 36.7462L59.8581 36.746C58.7065 35.1496 57.0823 33.953 55.2148 33.32C53.3475 32.6871 51.3279 32.6485 49.4376 33.2094L49.4367 33.2097L40.1428 35.9727C40.1427 35.9727 40.1426 35.9728 40.1425 35.9728C39.1926 36.2545 38.183 36.2762 37.2214 36.0357C36.2598 35.7951 35.3841 35.3017 34.6861 34.6101L34.6859 34.6098L33.5904 33.5245L33.5902 33.5244C33.4093 33.3452 33.272 33.1297 33.187 32.8941C33.102 32.6587 33.0709 32.4081 33.0956 32.16C33.1203 31.912 33.2004 31.6716 33.3309 31.456C33.4614 31.2406 33.6394 31.0549 33.8532 30.9134C33.8535 30.9132 33.8537 30.913 33.854 30.9129L54.0475 17.5781L54.0482 17.5776C54.9318 16.9937 55.9695 16.6755 57.035 16.6639C58.1006 16.6523 59.1452 16.9478 60.0417 17.5125L75.5803 27.3098L75.5814 27.3105C76.5004 27.8891 77.5668 28.1944 78.6484 28.1958ZM39.8774 81.2457L39.8763 81.2448L20.6583 66.2799C20.4578 66.1238 20.296 65.9269 20.1831 65.7042C20.0703 65.4817 20.0087 65.2381 20.0021 64.9909C19.9954 64.7436 20.0438 64.4974 20.1443 64.2695C20.2449 64.0417 20.3955 63.837 20.5868 63.6708C20.5869 63.6707 20.587 63.6706 20.5871 63.6705L26.628 58.4339C26.628 58.4339 26.628 58.4339 26.628 58.4339C27.7072 57.4984 29.1176 57.0171 30.556 57.0986C31.9944 57.1801 33.3389 57.8174 34.3022 58.8674L34.3024 58.8676L44.4052 69.8766L44.4055 69.877C45.1824 70.7232 45.6667 71.7889 45.7923 72.9205C45.9178 74.0519 45.6787 75.1948 45.1072 76.1856C45.1072 76.1857 45.1072 76.1857 45.1072 76.1857L42.4749 80.7493L42.4745 80.7501C42.3522 80.9622 42.1843 81.1473 41.9811 81.2918C41.7779 81.4362 41.5445 81.5363 41.2965 81.5842C41.0486 81.6321 40.793 81.6265 40.5476 81.5677C40.3022 81.509 40.0737 81.3987 39.8774 81.2457Z" stroke="white" stroke-width="4"/>
</g>
</svg>
