<svg width="96" height="71" viewBox="0 0 96 71" fill="none" xmlns="http://www.w3.org/2000/svg">
<g id="Group 1000006816">
<path id="Vector" d="M77.9528 17.3739C77.3458 25.7679 71.0953 32.2342 64.2793 32.2342C57.4632 32.2342 51.2023 25.77 50.6057 17.3739C49.9842 8.64138 56.0689 2.51355 64.2793 2.51355C72.4896 2.51355 78.5744 8.8003 77.9528 17.3739Z" stroke="white" stroke-width="4" stroke-linecap="round" stroke-linejoin="round"/>
<path id="Vector_2" d="M64.8508 45.9508C51.6584 45.9508 38.9721 52.5584 35.794 65.4264C35.3729 67.1288 36.4316 68.8129 38.1665 68.8129H91.5371C93.2719 68.8129 94.3246 67.1288 93.9096 65.4264C90.7314 52.3522 78.0451 45.9508 64.8508 45.9508Z" stroke="white" stroke-width="4" stroke-miterlimit="10"/>
<path id="Vector_3" d="M36.8111 21.3631C36.3331 28.0845 31.3533 33.3781 25.9855 33.3781C20.6176 33.3781 15.6296 28.0866 15.1598 21.3631C14.6717 14.3706 19.5187 9.37292 25.9855 9.37292C32.4522 9.37292 37.2993 14.4989 36.8111 21.3631Z" stroke="white" stroke-width="4" stroke-linecap="round" stroke-linejoin="round"/>
<path id="Vector_4" d="M37.988 46.0073C34.3122 44.3163 30.2637 43.6661 25.9729 43.6661C15.3834 43.6661 5.18077 48.9516 2.62503 59.2466C2.28901 60.6083 3.14025 61.9558 4.53318 61.9558H27.3984" stroke="white" stroke-width="4" stroke-miterlimit="10" stroke-linecap="round"/>
</g>
</svg>
