<svg xmlns="http://www.w3.org/2000/svg" width="56" height="56" viewBox="0 0 56 56" fill="none">
  <path d="M28.0002 28.5836C26.9735 28.5836 25.9468 28.3269 25.0135 27.8369L9.8235 19.6469C8.44683 18.9002 7.5835 17.4302 7.5835 15.7969C7.5835 14.1636 8.44683 12.6936 9.8235 11.9469L25.0135 3.75689C26.8802 2.75356 29.1202 2.75356 30.9635 3.75689L46.1535 11.9469C47.5302 12.6936 48.3935 14.1636 48.3935 15.7969C48.3935 17.4302 47.5302 18.9002 46.1535 19.6469L30.9635 27.8369C30.0535 28.3502 29.0268 28.5836 28.0002 28.5836ZM28.0002 6.48689C27.5568 6.48689 27.0902 6.60356 26.6702 6.83689L11.5035 15.0036C11.1068 15.2136 11.0835 15.6569 11.0835 15.7969C11.0835 15.9369 11.1068 16.3802 11.5035 16.5669L26.6935 24.7569C27.5335 25.2002 28.4902 25.2002 29.3302 24.7569L44.5202 16.5669C44.8935 16.3569 44.9402 15.9136 44.9402 15.7969C44.9402 15.6569 44.9168 15.2136 44.5202 15.0269L29.3302 6.83689C28.9102 6.60356 28.4435 6.48689 28.0002 6.48689Z" fill="white"/>
  <path d="M22.8198 53.0134C22.1665 53.0134 21.4898 52.8501 20.8832 52.5468L6.74317 45.5001C4.3865 44.3101 2.9165 41.9301 2.9165 39.2934V25.9468C2.9165 24.4301 3.6865 23.0534 4.96984 22.2601C6.2765 21.4668 7.83984 21.3968 9.19317 22.0734L23.3332 29.1201C25.6898 30.3101 27.1598 32.6668 27.1598 35.3268V48.6734C27.1598 50.1901 26.3898 51.5668 25.1065 52.3601C24.4065 52.8034 23.6132 53.0134 22.8198 53.0134ZM7.2565 25.1068C7.06984 25.1068 6.9065 25.1768 6.81317 25.2234C6.67317 25.3168 6.4165 25.5268 6.4165 25.9468V39.2934C6.4165 40.6001 7.13984 41.7901 8.3065 42.3734L22.4232 49.4434C22.7965 49.6301 23.0998 49.4901 23.2398 49.4201C23.3798 49.3268 23.6365 49.1168 23.6365 48.6968V35.3501C23.6365 34.0434 22.9132 32.8534 21.7465 32.2701L7.62984 25.2001C7.48984 25.1301 7.37317 25.1068 7.2565 25.1068Z" fill="white"/>
  <path d="M33.1798 53.0133C32.3865 53.0133 31.5932 52.8033 30.8932 52.36C29.6098 51.5667 28.8398 50.19 28.8398 48.6733V35.3267C28.8398 32.69 30.3098 30.31 32.6665 29.12L46.7832 22.05C48.1365 21.3733 49.7232 21.4433 51.0065 22.2367C52.2898 23.03 53.0598 24.4067 53.0598 25.9233V39.27C53.0598 41.9067 51.5898 44.2867 49.2332 45.4767L35.1165 52.5467C34.5098 52.8733 33.8332 53.0133 33.1798 53.0133ZM48.7432 25.1067C48.6265 25.1067 48.5098 25.13 48.3698 25.2L34.2532 32.27C33.0865 32.8533 32.3632 34.02 32.3632 35.35V48.6967C32.3632 49.1167 32.6198 49.3267 32.7598 49.42C32.8998 49.5133 33.2032 49.63 33.5765 49.4433L47.6932 42.3733C48.8598 41.79 49.5832 40.6 49.5832 39.2933V25.9467C49.5832 25.5267 49.3265 25.3167 49.1865 25.2233C49.0932 25.1767 48.9298 25.1067 48.7432 25.1067Z" fill="white"/>
</svg>