<svg xmlns="http://www.w3.org/2000/svg" width="56" height="56" viewBox="0 0 56 56" fill="none">
  <path d="M31.2665 40.6468H25.4099C21.5832 40.6468 18.4799 37.4268 18.4799 33.4602C18.4799 32.5035 19.2732 31.7102 20.2299 31.7102C21.1865 31.7102 21.9799 32.5035 21.9799 33.4602C21.9799 35.4902 23.5199 37.1468 25.4099 37.1468H31.2665C32.7832 37.1468 34.0432 35.7935 34.0432 34.1602C34.0432 32.1302 33.3199 31.7335 32.1299 31.3135L22.7265 28.0002C20.9065 27.3702 18.4565 26.0168 18.4565 21.8402C18.4565 18.2468 21.2799 15.3535 24.7332 15.3535H30.5899C34.4165 15.3535 37.5199 18.5735 37.5199 22.5402C37.5199 23.4968 36.7265 24.2902 35.7699 24.2902C34.8132 24.2902 34.0199 23.4968 34.0199 22.5402C34.0199 20.5102 32.4799 18.8535 30.5899 18.8535H24.7332C23.2165 18.8535 21.9565 20.2068 21.9565 21.8402C21.9565 23.8702 22.6799 24.2668 23.8699 24.6868L33.2732 28.0002C35.0932 28.6302 37.5432 29.9835 37.5432 34.1602C37.5199 37.7302 34.7199 40.6468 31.2665 40.6468Z" fill="white"/>
  <path d="M28 43.75C27.0433 43.75 26.25 42.9567 26.25 42V14C26.25 13.0433 27.0433 12.25 28 12.25C28.9567 12.25 29.75 13.0433 29.75 14V42C29.75 42.9567 28.9567 43.75 28 43.75Z" fill="white"/>
  <path d="M27.9998 53.0832C14.1632 53.0832 2.9165 41.8365 2.9165 27.9998C2.9165 14.1632 14.1632 2.9165 27.9998 2.9165C41.8365 2.9165 53.0832 14.1632 53.0832 27.9998C53.0832 41.8365 41.8365 53.0832 27.9998 53.0832ZM27.9998 6.4165C16.0998 6.4165 6.4165 16.0998 6.4165 27.9998C6.4165 39.8998 16.0998 49.5832 27.9998 49.5832C39.8998 49.5832 49.5832 39.8998 49.5832 27.9998C49.5832 16.0998 39.8998 6.4165 27.9998 6.4165Z" fill="white"/>
</svg>