<svg xmlns="http://www.w3.org/2000/svg" width="56" height="56" viewBox="0 0 56 56" fill="none">
  <path d="M41.2068 52.8967C39.9701 52.8967 38.3834 52.5001 36.4001 51.3334L29.4234 47.2034C28.7001 46.7834 27.3001 46.7834 26.6001 47.2034L19.6001 51.3334C15.4701 53.7834 13.0434 52.8034 11.9468 52.0101C10.8734 51.2168 9.19344 49.1867 10.2901 44.5201L11.9468 37.3567C12.1334 36.6101 11.7601 35.3267 11.2001 34.7667L5.41345 28.9801C2.52011 26.0867 2.75345 23.6134 3.15011 22.4001C3.54678 21.1867 4.80678 19.0401 8.82011 18.3634L16.2634 17.1267C16.9634 17.0101 17.9668 16.2634 18.2701 15.6334L22.4001 7.39675C24.2668 3.64008 26.7168 3.08008 28.0001 3.08008C29.2834 3.08008 31.7334 3.64008 33.6001 7.39675L37.7068 15.6101C38.0334 16.2401 39.0368 16.9867 39.7368 17.1034L47.1801 18.3401C51.2168 19.0167 52.4768 21.1634 52.8501 22.3767C53.2234 23.5901 53.4568 26.0634 50.5868 28.9567L44.8001 34.7667C44.2401 35.3267 43.8901 36.5868 44.0534 37.3567L45.7101 44.5201C46.7834 49.1867 45.1268 51.2168 44.0534 52.0101C43.4701 52.4301 42.5368 52.8967 41.2068 52.8967ZM28.0001 43.3767C29.1434 43.3767 30.2868 43.6567 31.1968 44.1934L38.1734 48.3234C40.2034 49.5367 41.4868 49.5367 41.9768 49.1867C42.4668 48.8368 42.8168 47.6001 42.3034 45.3134L40.6468 38.1501C40.2034 36.2134 40.9268 33.7167 42.3268 32.2934L48.1134 26.5067C49.2568 25.3634 49.7701 24.2434 49.5368 23.4734C49.2801 22.7034 48.2068 22.0734 46.6201 21.8167L39.1768 20.5801C37.3801 20.2767 35.4201 18.8301 34.6034 17.1967L30.4968 8.98341C29.7501 7.49008 28.8168 6.60341 28.0001 6.60341C27.1834 6.60341 26.2501 7.49008 25.5268 8.98341L21.3968 17.1967C20.5801 18.8301 18.6201 20.2767 16.8234 20.5801L9.40345 21.8167C7.81678 22.0734 6.74345 22.7034 6.48678 23.4734C6.23011 24.2434 6.76678 25.3867 7.91011 26.5067L13.6968 32.2934C15.0968 33.6934 15.8201 36.2134 15.3768 38.1501L13.7201 45.3134C13.1834 47.6234 13.5568 48.8368 14.0468 49.1867C14.5368 49.5367 15.7968 49.5134 17.8501 48.3234L24.8268 44.1934C25.7134 43.6567 26.8568 43.3767 28.0001 43.3767Z" fill="white"/>
</svg>