<svg xmlns="http://www.w3.org/2000/svg" width="24" height="24" viewBox="0 0 24 24" fill="none">
  <path d="M20.7708 19.53C20.7708 19.89 20.6908 20.26 20.5208 20.62C20.3508 20.98 20.1308 21.32 19.8408 21.64C19.3508 22.18 18.8108 22.57 18.2008 22.82C17.6008 23.07 16.9508 23.2 16.2508 23.2C15.2308 23.2 14.1408 22.96 12.9908 22.47C11.8408 21.98 10.6908 21.32 9.55078 20.49C8.40078 19.65 7.31078 18.72 6.27078 17.69C5.24078 16.65 4.31078 15.56 3.48078 14.42C2.66078 13.28 2.00078 12.14 1.52078 11.01C1.04078 9.86995 0.800781 8.77995 0.800781 7.73995C0.800781 7.05995 0.920781 6.40995 1.16078 5.80995C1.40078 5.19995 1.78078 4.63995 2.31078 4.13995C2.95078 3.50995 3.65078 3.19995 4.39078 3.19995C4.67078 3.19995 4.95078 3.25995 5.20078 3.37995C5.46078 3.49995 5.69078 3.67995 5.87078 3.93995L8.19078 7.20995C8.37078 7.45995 8.50078 7.68995 8.59078 7.90995C8.68078 8.11995 8.73078 8.32995 8.73078 8.51995C8.73078 8.75995 8.66078 8.99995 8.52078 9.22995C8.39078 9.45995 8.20078 9.69995 7.96078 9.93995L7.20078 10.73C7.09078 10.84 7.04078 10.97 7.04078 11.13C7.04078 11.21 7.05078 11.28 7.07078 11.36C7.10078 11.44 7.13078 11.5 7.15078 11.56C7.33078 11.89 7.64078 12.32 8.08078 12.84C8.53078 13.36 9.01078 13.89 9.53078 14.42C10.0708 14.95 10.5908 15.44 11.1208 15.89C11.6408 16.33 12.0708 16.63 12.4108 16.81C12.4608 16.83 12.5208 16.86 12.5908 16.89C12.6708 16.92 12.7508 16.93 12.8408 16.93C13.0108 16.93 13.1408 16.87 13.2508 16.76L14.0108 16.01C14.2608 15.76 14.5008 15.57 14.7308 15.45C14.9608 15.31 15.1908 15.24 15.4408 15.24C15.6308 15.24 15.8308 15.28 16.0508 15.37C16.2708 15.46 16.5008 15.59 16.7508 15.76L20.0608 18.11C20.3208 18.29 20.5008 18.5 20.6108 18.75C20.7108 19 20.7708 19.25 20.7708 19.53Z" stroke="#252222" stroke-width="1.2" stroke-miterlimit="10"/>
  <path d="M17.3008 10.2C17.3008 9.59995 16.8308 8.67995 16.1308 7.92995C15.4908 7.23995 14.6408 6.69995 13.8008 6.69995" stroke="#252222" stroke-width="1.2" stroke-linecap="round" stroke-linejoin="round"/>
  <path d="M20.8008 10.2C20.8008 6.32995 17.6708 3.19995 13.8008 3.19995" stroke="#252222" stroke-width="1.2" stroke-linecap="round" stroke-linejoin="round"/>
</svg>