<svg xmlns="http://www.w3.org/2000/svg" width="36" height="36" viewBox="0 0 36 36" fill="none">
  <path d="M34.125 18C34.125 26.895 26.895 34.125 18 34.125C9.105 34.125 1.875 26.895 1.875 18C1.875 9.105 9.105 1.875 18 1.875C26.895 1.875 34.125 9.105 34.125 18ZM4.125 18C4.125 25.65 10.35 31.875 18 31.875C25.65 31.875 31.875 25.65 31.875 18C31.875 10.35 25.65 4.125 18 4.125C10.35 4.125 4.125 10.35 4.125 18Z" fill="#F3F9FF"/>
  <path d="M22.515 18C22.515 18.285 22.41 18.57 22.185 18.795L16.89 24.09C16.455 24.525 15.735 24.525 15.3 24.09C14.865 23.655 14.865 22.935 15.3 22.5L19.8 18L15.3 13.5C14.865 13.065 14.865 12.345 15.3 11.91C15.735 11.475 16.455 11.475 16.89 11.91L22.185 17.205C22.41 17.43 22.515 17.715 22.515 18Z" fill="#F3F9FF"/>
</svg>