<svg xmlns="http://www.w3.org/2000/svg" width="36" height="37" viewBox="0 0 36 37" fill="none">
  <path d="M1.875 18.7578C1.875 9.86281 9.105 2.63281 18 2.63281C26.895 2.63281 34.125 9.86281 34.125 18.7578C34.125 27.6528 26.895 34.8828 18 34.8828C9.105 34.8828 1.875 27.6528 1.875 18.7578ZM31.875 18.7578C31.875 11.1078 25.65 4.88281 18 4.88281C10.35 4.88281 4.125 11.1078 4.125 18.7578C4.125 26.4078 10.35 32.6328 18 32.6328C25.65 32.6328 31.875 26.4078 31.875 18.7578Z" fill="#252222"/>
  <path d="M13.4851 18.7578C13.4851 18.4728 13.5901 18.1878 13.8151 17.9628L19.1101 12.6678C19.5451 12.2328 20.2651 12.2328 20.7001 12.6678C21.1351 13.1028 21.1351 13.8228 20.7001 14.2578L16.2001 18.7578L20.7001 23.2578C21.1351 23.6928 21.1351 24.4128 20.7001 24.8478C20.2651 25.2828 19.5451 25.2828 19.1101 24.8478L13.8151 19.5528C13.5901 19.3278 13.4851 19.0428 13.4851 18.7578Z" fill="#252222"/>
</svg>