<svg width="61" height="61" viewBox="0 0 61 61" fill="none" xmlns="http://www.w3.org/2000/svg">
<g id="vuesax/outline/star">
<g id="star">
<path id="Vector" d="M44.8642 56.958C43.5191 56.958 41.7933 56.533 39.6361 55.283L32.0479 50.858C31.2611 50.408 29.7384 50.408 28.9771 50.858L21.3634 55.283C16.8714 57.908 14.232 56.858 13.0392 56.008C11.8717 55.158 10.0445 52.983 11.2373 47.983L13.0392 40.308C13.2422 39.508 12.8361 38.133 12.2271 37.533L5.93311 31.333C2.78614 28.233 3.03993 25.583 3.47137 24.283C3.90281 22.983 5.27327 20.683 9.63842 19.958L17.7343 18.633C18.4956 18.508 19.5869 17.708 19.9168 17.033L24.4089 8.20801C26.4392 4.18301 29.1039 3.58301 30.4998 3.58301C31.8956 3.58301 34.5604 4.18301 36.5907 8.20801L41.0574 17.008C41.4127 17.683 42.5039 18.483 43.2653 18.608L51.3611 19.933C55.7517 20.658 57.1221 22.958 57.5282 24.258C57.9342 25.558 58.188 28.208 55.0664 31.308L48.7725 37.533C48.1634 38.133 47.7827 39.483 47.9604 40.308L49.7623 47.983C50.9297 52.983 49.1278 55.158 47.9604 56.008C47.3259 56.458 46.3108 56.958 44.8642 56.958ZM30.4998 46.758C31.7433 46.758 32.9869 47.058 33.9767 47.633L41.5649 52.058C43.7729 53.358 45.1687 53.358 45.7017 52.983C46.2346 52.608 46.6153 51.283 46.057 48.833L44.2551 41.158C43.7729 39.083 44.5596 36.408 46.0824 34.883L52.3763 28.683C53.6199 27.458 54.1782 26.258 53.9244 25.433C53.6452 24.608 52.4778 23.933 50.7521 23.658L42.6562 22.333C40.7021 22.008 38.5702 20.458 37.682 18.708L33.2153 9.90801C32.4032 8.30801 31.388 7.35801 30.4998 7.35801C29.6115 7.35801 28.5964 8.30801 27.8096 9.90801L23.3176 18.708C22.4293 20.458 20.2975 22.008 18.3433 22.333L10.2729 23.658C8.54713 23.933 7.3797 24.608 7.10054 25.433C6.82137 26.258 7.40508 27.483 8.64864 28.683L14.9426 34.883C16.4653 36.383 17.2521 39.083 16.7699 41.158L14.968 48.833C14.3843 51.308 14.7903 52.608 15.3233 52.983C15.8562 53.358 17.2267 53.333 19.46 52.058L27.0483 47.633C28.0127 47.058 29.2562 46.758 30.4998 46.758Z" fill="#0078FF"/>
</g>
</g>
</svg>
