<svg width="61" height="61" viewBox="0 0 61 61" fill="none" xmlns="http://www.w3.org/2000/svg">
<g id="vuesax/outline/dollar-circle">
<g id="dollar-circle">
<path id="Vector" d="M33.9999 43.5937H27.7249C23.6249 43.5937 20.2999 40.1437 20.2999 35.8937C20.2999 34.8687 21.1499 34.0187 22.1749 34.0187C23.1999 34.0187 24.0499 34.8687 24.0499 35.8937C24.0499 38.0687 25.6999 39.8437 27.7249 39.8437H33.9999C35.6249 39.8437 36.9749 38.3937 36.9749 36.6437C36.9749 34.4687 36.1999 34.0437 34.9249 33.5937L24.8499 30.0437C22.8999 29.3687 20.2749 27.9187 20.2749 23.4437C20.2749 19.5937 23.2999 16.4937 26.9999 16.4937H33.2749C37.3749 16.4937 40.6999 19.9437 40.6999 24.1937C40.6999 25.2187 39.8499 26.0687 38.8249 26.0687C37.7999 26.0687 36.9499 25.2187 36.9499 24.1937C36.9499 22.0187 35.2999 20.2437 33.2749 20.2437H26.9999C25.3749 20.2437 24.0249 21.6937 24.0249 23.4437C24.0249 25.6187 24.7999 26.0437 26.0749 26.4937L36.1499 30.0437C38.0999 30.7187 40.7249 32.1687 40.7249 36.6437C40.6999 40.4687 37.6999 43.5937 33.9999 43.5937Z" fill="#0078FF"/>
<path id="Vector_2" d="M30.5 46.9187C29.475 46.9187 28.625 46.0687 28.625 45.0437V15.0437C28.625 14.0187 29.475 13.1687 30.5 13.1687C31.525 13.1687 32.375 14.0187 32.375 15.0437V45.0437C32.375 46.0687 31.525 46.9187 30.5 46.9187Z" fill="#0078FF"/>
<path id="Vector_3" d="M30.5 56.9187C15.675 56.9187 3.625 44.8687 3.625 30.0437C3.625 15.2187 15.675 3.1687 30.5 3.1687C45.325 3.1687 57.375 15.2187 57.375 30.0437C57.375 44.8687 45.325 56.9187 30.5 56.9187ZM30.5 6.9187C17.75 6.9187 7.375 17.2937 7.375 30.0437C7.375 42.7937 17.75 53.1687 30.5 53.1687C43.25 53.1687 53.625 42.7937 53.625 30.0437C53.625 17.2937 43.25 6.9187 30.5 6.9187Z" fill="#0078FF"/>
</g>
</g>
</svg>
