<svg width="61" height="61" viewBox="0 0 61 61" fill="none" xmlns="http://www.w3.org/2000/svg">
<g id="uiw:safety" clip-path="url(#clip0_2106_3055)">
<path id="Vector" d="M8.6905 10.9117V31.3552C8.6905 42.4845 17.5042 51.5045 28.375 51.5045C39.2458 51.5045 48.0595 42.4845 48.0595 31.3552V10.9227L28.2568 4.25946L8.6905 10.9117ZM28.2512 0.282959L51.75 8.18646V31.3552C51.75 44.569 41.2835 55.283 28.375 55.283C15.4665 55.283 5 44.569 5 31.3552V8.18646L28.2512 0.282959ZM40.4035 18.1167C40.224 17.9518 40.0131 17.8248 39.7835 17.7431C39.5538 17.6615 39.31 17.627 39.0667 17.6416C38.8234 17.6563 38.5856 17.7197 38.3673 17.8283C38.1491 17.9368 37.955 18.0882 37.7965 18.2735L25.9275 31.9382L18.2605 23.4545C18.0984 23.2729 17.9014 23.1257 17.6813 23.0218C17.4612 22.9179 17.2224 22.8593 16.9792 22.8495C16.7359 22.8398 16.4932 22.8791 16.2655 22.965C16.0377 23.051 15.8296 23.1819 15.6535 23.35C15.2929 23.6946 15.0807 24.1661 15.0617 24.6645C15.0427 25.1629 15.2185 25.6491 15.5518 26.0202L24.5992 36.0302C24.7716 36.2239 24.9834 36.3785 25.2205 36.4835C25.4575 36.5885 25.7144 36.6414 25.9736 36.6388C26.2329 36.6362 26.4886 36.5781 26.7235 36.4684C26.9584 36.3587 27.1671 36.1999 27.3355 36.0027L40.5547 20.7842C40.881 20.407 41.0476 19.9177 41.0194 19.4198C40.9912 18.9219 40.7703 18.4546 40.4035 18.1167Z" fill="#0078FF"/>
</g>
<defs>
<clipPath id="clip0_2106_3055">
<rect width="60" height="60" fill="white" transform="translate(0.5 0.282959)"/>
</clipPath>
</defs>
</svg>
