<svg width="61" height="61" viewBox="0 0 61 61" fill="none" xmlns="http://www.w3.org/2000/svg">
<g id="vuesax/outline/3dcube">
<g id="3dcube">
<path id="Vector" d="M30.5 31.4641C29.4 31.4641 28.3 31.1891 27.3 30.6641L11.025 21.8891C9.55 21.0891 8.625 19.5141 8.625 17.7641C8.625 16.0141 9.55 14.4391 11.025 13.6391L27.3 4.86411C29.3 3.78911 31.7 3.78911 33.675 4.86411L49.95 13.6391C51.425 14.4391 52.35 16.0141 52.35 17.7641C52.35 19.5141 51.425 21.0891 49.95 21.8891L33.675 30.6641C32.7 31.2141 31.6 31.4641 30.5 31.4641ZM30.5 7.78911C30.025 7.78911 29.525 7.91411 29.075 8.16411L12.825 16.9141C12.4 17.1391 12.375 17.6141 12.375 17.7641C12.375 17.9141 12.4 18.3891 12.825 18.5891L29.1 27.3641C30 27.8391 31.025 27.8391 31.925 27.3641L48.2 18.5891C48.6 18.3641 48.65 17.8891 48.65 17.7641C48.65 17.6141 48.625 17.1391 48.2 16.9391L31.925 8.16411C31.475 7.91411 30.975 7.78911 30.5 7.78911Z" fill="#0078FF"/>
<path id="Vector_2" d="M24.95 57.6391C24.25 57.6391 23.525 57.4641 22.875 57.1391L7.725 49.5891C5.2 48.3141 3.625 45.7641 3.625 42.9391V28.6391C3.625 27.0141 4.45 25.5391 5.825 24.6891C7.225 23.8391 8.9 23.7641 10.35 24.4891L25.5 32.0391C28.025 33.3141 29.6 35.8391 29.6 38.6891V52.9891C29.6 54.6141 28.775 56.0891 27.4 56.9391C26.65 57.4141 25.8 57.6391 24.95 57.6391ZM8.275 27.7391C8.075 27.7391 7.9 27.8141 7.8 27.8641C7.65 27.9641 7.375 28.1891 7.375 28.6391V42.9391C7.375 44.3391 8.15 45.6141 9.4 46.2391L24.525 53.8141C24.925 54.0141 25.25 53.8641 25.4 53.7891C25.55 53.6891 25.825 53.4641 25.825 53.0141V38.7141C25.825 37.3141 25.05 36.0391 23.8 35.4141L8.675 27.8391C8.525 27.7641 8.4 27.7391 8.275 27.7391Z" fill="#0078FF"/>
<path id="Vector_3" d="M36.0499 57.6391C35.1999 57.6391 34.3499 57.4141 33.5999 56.9391C32.2249 56.0891 31.3999 54.6141 31.3999 52.9891V38.6891C31.3999 35.8641 32.9749 33.3141 35.4999 32.0391L50.6249 24.4641C52.0749 23.7391 53.7749 23.8141 55.1499 24.6641C56.5249 25.5141 57.3499 26.9891 57.3499 28.6141V42.9141C57.3499 45.7391 55.7749 48.2891 53.2499 49.5641L38.1249 57.1391C37.4749 57.4891 36.7499 57.6391 36.0499 57.6391ZM52.7249 27.7391C52.5999 27.7391 52.4749 27.7641 52.3249 27.8391L37.1999 35.4141C35.9499 36.0391 35.1749 37.2891 35.1749 38.7141V53.0141C35.1749 53.4641 35.4499 53.6891 35.5999 53.7891C35.7499 53.8891 36.0749 54.0141 36.4749 53.8141L51.5999 46.2391C52.8499 45.6141 53.6249 44.3391 53.6249 42.9391V28.6391C53.6249 28.1891 53.3499 27.9641 53.1999 27.8641C53.0999 27.8141 52.9249 27.7391 52.7249 27.7391Z" fill="#0078FF"/>
</g>
</g>
</svg>
