<svg width="67" height="65" viewBox="0 0 67 65" fill="none" xmlns="http://www.w3.org/2000/svg">
<g id="streamline:shipping-truck" clip-path="url(#clip0_2106_3086)">
<g id="Group">
<path id="Vector" d="M40.6788 25.9576H55.0359C57.5744 25.9576 60.009 26.9208 61.8039 28.6354C63.5989 30.3501 64.6074 32.6756 64.6074 35.1004V53.3861H57.4288M7.17878 53.3861H2.39307V21.3861C2.39307 20.1737 2.89727 19.0109 3.79477 18.1536C4.69227 17.2963 5.90953 16.8147 7.17878 16.8147H35.8931C37.1623 16.8147 38.3796 17.2963 39.2771 18.1536C40.1746 19.0109 40.6788 20.1737 40.6788 21.3861V53.3861M38.2859 53.3861H26.3216" stroke="#0078FF" stroke-width="4" stroke-linecap="round" stroke-linejoin="round"/>
<path id="Vector_2" d="M49.0536 62.5289C46.8324 62.5289 44.7022 61.6861 43.1315 60.1858C41.5609 58.6855 40.6786 56.6507 40.6786 54.5289C40.6786 52.4072 41.5609 50.3724 43.1315 48.8721C44.7022 47.3718 46.8324 46.5289 49.0536 46.5289C51.2748 46.5289 53.405 47.3718 54.9756 48.8721C56.5462 50.3724 57.4286 52.4072 57.4286 54.5289C57.4286 56.6507 56.5462 58.6855 54.9756 60.1858C53.405 61.6861 51.2748 62.5289 49.0536 62.5289ZM16.75 62.5289C14.5288 62.5289 12.3986 61.6861 10.828 60.1858C9.25736 58.6855 8.375 56.6507 8.375 54.5289C8.375 52.4072 9.25736 50.3724 10.828 48.8721C12.3986 47.3718 14.5288 46.5289 16.75 46.5289C18.9712 46.5289 21.1014 47.3718 22.672 48.8721C24.2426 50.3724 25.125 52.4072 25.125 54.5289C25.125 56.6507 24.2426 58.6855 22.672 60.1858C21.1014 61.6861 18.9712 62.5289 16.75 62.5289Z" stroke="#0078FF" stroke-width="4" stroke-linecap="round" stroke-linejoin="round"/>
</g>
</g>
<defs>
<clipPath id="clip0_2106_3086">
<rect width="67" height="64" fill="white" transform="translate(0 0.814697)"/>
</clipPath>
</defs>
</svg>
