<svg width="21" height="20" viewBox="0 0 21 20" fill="none" xmlns="http://www.w3.org/2000/svg">
<g id="Twitter - Negative" clip-path="url(#clip0_2106_4212)">
<path id="Vector" d="M6.88066 18.1251C14.426 18.1251 18.5541 11.8724 18.5541 6.45167C18.5541 6.27589 18.5502 6.0962 18.5424 5.92042C19.3454 5.33967 20.0384 4.62033 20.5889 3.7962C19.841 4.12896 19.0469 4.34627 18.2338 4.44074C19.0899 3.92755 19.731 3.12135 20.0381 2.17159C19.2327 2.64892 18.3518 2.98563 17.4334 3.1673C16.8146 2.50976 15.9964 2.07439 15.1053 1.9285C14.2142 1.78261 13.2999 1.93433 12.5037 2.3602C11.7074 2.78607 11.0737 3.46238 10.7004 4.28455C10.3271 5.10672 10.2351 6.02897 10.4385 6.9087C8.80761 6.82686 7.21215 6.40321 5.75552 5.6652C4.29889 4.9272 3.01361 3.89132 1.98301 2.62472C1.4592 3.52782 1.29891 4.59649 1.53473 5.61353C1.77054 6.63057 2.38475 7.51966 3.25254 8.10011C2.60106 8.07943 1.96385 7.90402 1.39355 7.58839V7.63917C1.39297 8.58691 1.72062 9.50561 2.32079 10.2391C2.92097 10.9726 3.75664 11.4756 4.68574 11.6626C4.08225 11.8277 3.44885 11.8518 2.83457 11.7329C3.09675 12.548 3.60684 13.2609 4.29368 13.7721C4.98051 14.2833 5.8098 14.5673 6.66582 14.5845C5.21255 15.726 3.41735 16.3452 1.56934 16.3423C1.24161 16.3418 0.9142 16.3217 0.588867 16.2821C2.46625 17.4866 4.65014 18.1263 6.88066 18.1251Z" fill="#1B1717" fill-opacity="0.7"/>
</g>
<defs>
<clipPath id="clip0_2106_4212">
<rect width="20" height="20" fill="white" transform="translate(0.588867)"/>
</clipPath>
</defs>
</svg>
